<?xml version="1.0" encoding="utf-8"?>
<!-- Generator: Adobe Illustrator 19.1.0, SVG Export Plug-In . SVG Version: 6.00 Build 0)  -->
<svg version="1.1" id="Layer_1" xmlns="http://www.w3.org/2000/svg" xmlns:xlink="http://www.w3.org/1999/xlink" x="0px" y="0px"
	 viewBox="0 0 248.1 285.2" style="enable-background:new 0 0 248.1 285.2;" xml:space="preserve">
<style type="text/css">
	.st0{fill:#C9335B;}
	.st1{fill:#A62151;}
	.st2{fill:#5B67AF;}
	.st3{fill:#FFFFFF;}
	.st4{fill:#3D4794;}
	.st5{fill:#EA4A6D;}
	.st6{fill:#F16E93;}
	.st7{fill:#F89534;}
	.st8{fill:#F6AD1B;}
	.st9{fill:#EDCD18;}
	.st10{fill:#FFD217;}
	.st11{fill:#FFDE19;}
	.st12{fill:#F9ED38;}
	.st13{fill:#F0EFEF;}
	.st14{fill:#CDCCCC;}
	.st15{opacity:0.2;fill:#FFFFFF;}
	.st16{font-family:'SourceSansPro-Bold';}
	.st17{font-size:23.5035px;}
</style>
<g>
	<g>
		<g>
			<polygon class="st0" points="40.1,215.1 125.1,147.5 210,215.1 147.8,239.2 			"/>
			<polygon class="st1" points="40.1,227.4 125.1,159.9 210,227.4 147.8,251.6 			"/>
		</g>
		<g>
			<path class="st2" d="M139.6,222.4l82.5-142.9c3.1-5.4,2.9-11.5,0.3-16.3c-2.8-5.2-8.2-8.9-14.9-8.9h-165c-6,0-11,3-13.9,7.4
				c-3.4,5-4.1,11.9-0.7,17.9l82.5,142.9c4,6.9,11.6,9.5,18.4,8C133.2,229.4,137.1,226.8,139.6,222.4z"/>
			<g>
				<path class="st3" d="M125.1,227.9c-4.4,0-9.3-2-12.1-6.9L30.5,78.1c-2.7-4.7-2.5-10.3,0.6-14.8c2.6-3.9,6.8-6.1,11.5-6.1h165
					c5.2,0,9.8,2.8,12.3,7.4c2.3,4.3,2.2,9.2-0.2,13.5L137.1,221c-2,3.4-5.1,5.7-8.9,6.6C127.2,227.8,126.2,227.9,125.1,227.9z
					 M32.2,77.1L114.7,220c3,5.3,8.8,6.6,13.1,5.7c3.2-0.7,5.9-2.8,7.6-5.7l82.5-142.9c2.1-3.6,2.2-7.9,0.2-11.6
					c-2.1-4-6.1-6.3-10.6-6.3h-165c-4,0-7.6,1.9-9.9,5.2C30.1,68.3,29.9,73.1,32.2,77.1L32.2,77.1z"/>
			</g>
			<path class="st4" d="M119,219c1.9,3.3,5.4,3.9,7.7,3.3c1.3-0.3,3.2-1.1,4.5-3.3l82.5-142.9c1.8-3.1,0.7-5.8,0.1-6.8
				c-0.6-1.1-2.4-3.8-6.2-3.8h-165c-3.2,0-5,1.9-5.8,3.1c-0.6,0.9-2.3,4-0.3,7.5L119,219z"/>
		</g>
		<g>
			<rect x="40.1" y="215.1" class="st5" width="169.8" height="40.5"/>
			<g>
				<rect x="40.1" y="215.1" class="st6" width="169.8" height="2.7"/>
				<rect x="40.1" y="217.7" class="st0" width="169.8" height="2.7"/>
			</g>
			<g>
				<rect x="40.1" y="250.2" class="st6" width="169.8" height="2.7"/>
				<rect x="40.1" y="252.9" class="st0" width="169.8" height="2.7"/>
			</g>
		</g>
		<g>
			<g>
				<g>
					<path class="st5" d="M125.2,134.2L101.9,147c-1.9,1-3.5,2.4-4.8,4c-2.3,2.8-3.6,6.4-3.6,10.2v7.6l23.1-3.3L125.2,134.2z"/>
					<polygon class="st0" points="117.8,161 93.5,164.9 93.5,168.9 116.5,165.5 					"/>
				</g>
				<g>
					<path class="st5" d="M124.9,134.2l23.3,12.8c1.9,1,3.5,2.4,4.8,4c2.3,2.8,3.6,6.4,3.6,10.2v7.6l-23.1-3.3L124.9,134.2z"/>
					<polygon class="st0" points="132.3,161 156.7,164.9 156.7,168.9 133.6,165.5 					"/>
				</g>
			</g>
			<g>
				<g>
					<path class="st7" d="M113.3,195.4c0,11.5,4.4,22,11.7,29.8c7.2-7.9,11.7-18.3,11.7-29.8c0-11.5-4.4-22-11.7-29.8
						C117.7,173.4,113.3,183.9,113.3,195.4z"/>
					<path class="st8" d="M114.9,192.1c0,9.9,3.8,18.9,10,25.6c6.2-6.7,10-15.7,10-25.6c0-9.9-3.8-18.9-10-25.6
						C118.7,173.2,114.9,182.2,114.9,192.1z"/>
					<path class="st9" d="M116.7,190.5c0,8.1,3.1,15.4,8.2,20.9c5.1-5.5,8.2-12.8,8.2-20.9c0-8.1-3.1-15.4-8.2-20.9
						C119.8,175.1,116.7,182.4,116.7,190.5z"/>
					<path class="st10" d="M116.7,190.5c0,8.1,3.1,15.4,8.2,20.9c5.1-5.5,8.2-12.8,8.2-20.9c0-8.1-3.1-15.4-8.2-20.9
						C119.8,175.1,116.7,182.4,116.7,190.5z"/>
					<path class="st11" d="M118.7,187.5c0,6.1,2.4,11.7,6.2,15.9c3.8-4.2,6.2-9.8,6.2-15.9c0-6.1-2.4-11.7-6.2-15.9
						C121.1,175.8,118.7,181.4,118.7,187.5z"/>
					<path class="st12" d="M120.5,182.9c0,4.3,1.7,8.3,4.4,11.2c2.7-2.9,4.4-6.9,4.4-11.2s-1.7-8.3-4.4-11.2
						C122.2,174.6,120.5,178.5,120.5,182.9z"/>
				</g>
			</g>
			<g>
				<path class="st13" d="M133.6,165.5c12.3-18.1,19.6-40,19.6-63.6c0-28.6-10.6-54.7-28.1-74.6C107.6,47.3,97,73.4,97,102
					c0,23.6,7.2,45.4,19.6,63.6H133.6z"/>
				<g>
					<path class="st14" d="M116.5,165.5h3.9c-6.7-18.1-10.6-40-10.6-63.6c0-28.6,5.7-54.7,15.2-74.6C107.6,47.3,97,73.4,97,102
						C97,125.5,104.2,147.4,116.5,165.5z"/>
					<path class="st3" d="M125.1,27.4c9.4,19.9,15.2,46,15.2,74.6c0,23.6-3.9,45.4-10.6,63.6h3.9c12.3-18.1,19.6-40,19.6-63.6
						C153.1,73.4,142.5,47.3,125.1,27.4z"/>
				</g>
				<path class="st5" d="M125.1,27.4c-9.4,10.7-16.7,23.1-21.6,36.8h43.1C141.8,50.5,134.4,38,125.1,27.4z"/>
				<g>
					<path class="st6" d="M146.6,64.1c-4.8-13.6-12.2-26.1-21.6-36.8c5,10.7,9,23.1,11.6,36.8H146.6z"/>
					<path class="st0" d="M125.1,27.4c-9.4,10.7-16.7,23.1-21.6,36.8h10C116,50.5,120,38,125.1,27.4z"/>
				</g>
				<rect x="116.4" y="165.5" class="st5" width="17.3" height="6.6"/>
				<rect x="116.4" y="165.5" class="st0" width="4.1" height="6.6"/>
				<rect x="129.7" y="165.5" class="st6" width="4.1" height="6.6"/>
			</g>
			<circle class="st5" cx="125.1" cy="100.4" r="20.8"/>
			<circle class="st0" cx="125.1" cy="100.4" r="19"/>
			<circle class="st8" cx="125.1" cy="100.4" r="17.3"/>
			<circle class="st12" cx="125.1" cy="100.4" r="15.6"/>
			<ellipse class="st3" cx="125.1" cy="89.1" rx="6" ry="2.2"/>
			<path class="st10" d="M137.6,91.2c0.3,1,0.4,2.1,0.4,3.2c0,7.2-5.8,13-13,13c-7.2,0-13-5.8-13-13c0-1.1,0.2-2.2,0.4-3.2
				c-1.9,2.6-3,5.8-3,9.2c0,8.6,7,15.6,15.6,15.6c8.6,0,15.6-7,15.6-15.6C140.7,97,139.5,93.8,137.6,91.2z"/>
		</g>
		<path class="st15" d="M82.5,76.7l1.7,3l3,1.7l-3,1.7l-1.7,3l-1.7-3l-3-1.7l3-1.7L82.5,76.7z M68.6,102.1l-2.8,1.5l2.8,1.5l1.5,2.8
			l1.5-2.8l2.8-1.5l-2.8-1.5l-1.5-2.8L68.6,102.1z M85.3,129.7l-3.4,1.9l3.4,1.9l1.9,3.4l1.9-3.4l3.4-1.9l-3.4-1.9l-1.9-3.4
			L85.3,129.7z M165,124.8l-2.8,1.5l2.8,1.5l1.5,2.8l1.5-2.8l2.8-1.5l-2.8-1.5l-1.5-2.8L165,124.8z M171.1,93.7l-2.5,1.4l2.5,1.4
			l1.4,2.5l1.4-2.5l2.5-1.4l-2.5-1.4l-1.4-2.5L171.1,93.7z M193,75.2l-2.8,1.5l2.8,1.5l1.5,2.8l1.5-2.8l2.8-1.5l-2.8-1.5l-1.5-2.8
			L193,75.2z"/>
	</g>
	<text transform="matrix(1 0 0 1 60.9284 244.3149)" class="st3 st16 st17">SPACE HACK</text>
</g>
</svg>
