<?xml version="1.0" encoding="utf-8"?>
<!-- Generator: Adobe Illustrator 19.1.0, SVG Export Plug-In . SVG Version: 6.00 Build 0)  -->
<svg version="1.1" id="Layer_1" xmlns="http://www.w3.org/2000/svg" xmlns:xlink="http://www.w3.org/1999/xlink" x="0px" y="0px"
	 viewBox="0 0 248.1 285.2" style="enable-background:new 0 0 248.1 285.2;" xml:space="preserve">
<style type="text/css">
	.st0{fill:#D6492F;}
	.st1{fill:#F16145;}
	.st2{fill:none;}
	.st3{fill:#368ACA;}
	.st4{fill:#1C76BC;}
	.st5{fill:#09233D;}
	.st6{fill:#FFFFFF;}
	.st7{fill:#F6EC74;}
	.st8{fill:none;stroke:#FFFFFF;stroke-width:0.9082;stroke-miterlimit:10;}
	.st9{fill:#A5BCBC;}
	.st10{fill:url(#SVGID_2_);}
	.st11{fill:url(#SVGID_3_);}
	.st12{fill:url(#SVGID_4_);}
	.st13{fill:url(#SVGID_5_);}
	.st14{opacity:0.25;fill:url(#SVGID_6_);}
	.st15{fill:none;stroke:#242744;stroke-width:0.4923;stroke-linecap:round;stroke-miterlimit:10;}
	.st16{fill:url(#SVGID_7_);}
	.st17{fill:#242744;}
	.st18{opacity:0.25;fill:#010101;}
	.st19{fill:#E62625;}
	.st20{fill:#1A1A1A;}
	.st21{fill:url(#SVGID_8_);}
	.st22{fill:#B3E2ED;}
	.st23{opacity:0.5;fill:#FFFFFF;}
	.st24{fill:#75CAD8;}
</style>
<g>
	<g>
		<g>
			<path class="st0" d="M39,200c-4.2,3.6-4.6,9.9-0.9,14c21.8,24.4,53.9,39.5,89.2,38.6c32.4-0.8,61.4-14.9,81.9-36.9
				c3.9-4.2,3.3-10.9-1.2-14.4l-83.3-64.2c-3.7-2.8-8.8-2.7-12.3,0.3L39,200z"/>
		</g>
		<path class="st1" d="M112.3,137.5l-71.9,61.3c21.8,23.1,52.8,39.1,86.8,38.2c31.2-0.8,59.1-15.8,79.4-36.5l-82.1-63.3
			C120.9,134.4,115.8,134.5,112.3,137.5z"/>
		<path id="SVGID_x5F_1_x5F_" class="st2" d="M30.8,194c45.3,69.2,144.6,70.3,186.2-4.6"/>
		<text>		<textPath  xlink:href="#SVGID_x5F_1_x5F_" startOffset="0%">
<tspan  class="st6" style="font-family:'Gilroy-ExtraBold'; font-size:19.2697px;">      </tspan><tspan  class="st6" style="font-family:'MyriadPro-Semibold'; font-size:19.2697px;">SPACE HACK</tspan>		</textPath>
</text>
	</g>
	<g>
		<g>
			<circle class="st3" cx="124.1" cy="127.9" r="95.4"/>
			<g>
				<circle class="st4" cx="124.1" cy="127.9" r="86.1"/>
			</g>
			<circle class="st5" cx="124.1" cy="127.9" r="77.8"/>
			<g>
				<circle class="st6" cx="132.2" cy="158.8" r="1.1"/>
				<circle class="st6" cx="117.3" cy="189.9" r="1.1"/>
				<circle class="st6" cx="146.4" cy="115.3" r="1.1"/>
				<circle class="st6" cx="71.6" cy="136.2" r="1.1"/>
				<circle class="st6" cx="89.6" cy="100.4" r="1.1"/>
				<circle class="st6" cx="145.7" cy="139.8" r="1.1"/>
				<circle class="st6" cx="93.6" cy="86.1" r="1.1"/>
				<circle class="st6" cx="182.2" cy="167.9" r="1.1"/>
				<circle class="st6" cx="64.2" cy="99.7" r="1.1"/>
				<circle class="st6" cx="55.4" cy="140.4" r="1.1"/>
				<circle class="st6" cx="152.9" cy="151.3" r="1.1"/>
				<circle class="st6" cx="168.4" cy="167.3" r="0.4"/>
				<circle class="st6" cx="98.8" cy="165" r="0.4"/>
				<circle class="st6" cx="134.6" cy="195.2" r="0.4"/>
				<circle class="st6" cx="59.2" cy="124.8" r="0.4"/>
				<circle class="st6" cx="70.6" cy="163.6" r="0.4"/>
				<circle class="st6" cx="68.4" cy="89.2" r="0.4"/>
				<circle class="st6" cx="83.1" cy="74" r="0.4"/>
				<circle class="st6" cx="186.3" cy="150.7" r="0.4"/>
				<circle class="st6" cx="103" cy="138.1" r="0.4"/>
				<circle class="st6" cx="120.3" cy="115" r="0.4"/>
				<circle class="st6" cx="101.4" cy="115.3" r="0.4"/>
				<g>
					<path class="st7" d="M131.6,135.6c0.7-0.3,1.4-0.3,2.1-0.1c0.2,0.1,0.5-0.1,0.4-0.4c-0.2-0.7-0.2-1.5,0.1-2.1
						c0.1-0.2-0.1-0.5-0.4-0.4c-0.7,0.3-1.4,0.3-2.1,0.1c-0.2-0.1-0.5,0.1-0.4,0.4c0.2,0.7,0.2,1.5-0.1,2.1
						C131.2,135.4,131.4,135.7,131.6,135.6z"/>
				</g>
				<g>
					<path class="st7" d="M121.3,168.6c0.7-0.3,1.4-0.3,2.1-0.1c0.2,0.1,0.5-0.1,0.4-0.4c-0.2-0.7-0.2-1.5,0.1-2.1
						c0.1-0.2-0.1-0.5-0.4-0.4c-0.7,0.3-1.4,0.3-2.1,0.1c-0.2-0.1-0.5,0.1-0.4,0.4c0.2,0.7,0.2,1.5-0.1,2.1
						C120.8,168.4,121.1,168.7,121.3,168.6z"/>
				</g>
				<g>
					<path class="st7" d="M91,186.5c0.7-0.3,1.4-0.3,2.1-0.1c0.2,0.1,0.5-0.1,0.4-0.4c-0.2-0.7-0.2-1.5,0.1-2.1
						c0.1-0.2-0.1-0.5-0.4-0.4c-0.7,0.3-1.4,0.3-2.1,0.1c-0.2-0.1-0.5,0.1-0.4,0.4c0.2,0.7,0.2,1.5-0.1,2.1
						C90.5,186.4,90.8,186.6,91,186.5z"/>
				</g>
				<g>
					<path class="st7" d="M100.7,101.8c0.7-0.3,1.4-0.3,2.1-0.1c0.2,0.1,0.5-0.1,0.4-0.4c-0.2-0.7-0.2-1.5,0.1-2.1
						c0.1-0.2-0.1-0.5-0.4-0.4c-0.7,0.3-1.4,0.3-2.1,0.1c-0.2-0.1-0.5,0.1-0.4,0.4c0.2,0.7,0.2,1.5-0.1,2.1
						C100.2,101.7,100.5,101.9,100.7,101.8z"/>
				</g>
				<g>
					<path class="st7" d="M151.2,182.7c0.9-0.4,2-0.4,2.9-0.1c0.3,0.1,0.6-0.2,0.5-0.5c-0.3-0.9-0.3-2,0.1-2.9
						c0.1-0.3-0.2-0.6-0.5-0.5c-0.9,0.4-2,0.4-2.9,0.1c-0.3-0.1-0.6,0.2-0.5,0.5c0.3,0.9,0.3,2-0.1,2.9
						C150.5,182.5,150.9,182.9,151.2,182.7z"/>
				</g>
				<g>
					<path class="st7" d="M95.5,59.5c0.9-0.4,2-0.4,2.9-0.1c0.3,0.1,0.6-0.2,0.5-0.5c-0.3-0.9-0.3-2,0.1-2.9
						c0.1-0.3-0.2-0.6-0.5-0.5c-0.9,0.4-2,0.4-2.9,0.1c-0.3-0.1-0.6,0.2-0.5,0.5c0.3,0.9,0.3,2-0.1,2.9
						C94.8,59.3,95.2,59.7,95.5,59.5z"/>
				</g>
			</g>
		</g>
		<path class="st8" d="M131,148.9c-2.1,3.4-10.2,3.2-16.8-5.3c-6.2-8.8-14.2-0.8-10,9.2c4.1,8.3,7.2,4,5.9,0.4
			c-1.5-4.4-9.5-11-25.9-5.7"/>
		<g>
			<g>
				<g>
					<path class="st9" d="M67,160.2c-2.2-0.3-4-1.9-4.7-4.1l-3.9-13.4c-0.9-3.1,0.9-6.2,3.9-7.1c3.1-0.9,6.2,0.9,7.1,3.9l3.9,13.4
						c0.9,3.1-0.9,6.2-3.9,7.1C68.6,160.2,67.8,160.3,67,160.2z"/>
				</g>
				
					<linearGradient id="SVGID_2_" gradientUnits="userSpaceOnUse" x1="32.0112" y1="135.8828" x2="45.8717" y2="142.2274" gradientTransform="matrix(0.9724 -0.2331 0.2331 0.9724 -11.0172 20.3029)">
					<stop  offset="0" style="stop-color:#FFFFFF;stop-opacity:0"/>
					<stop  offset="2.973682e-002" style="stop-color:#FDFDFE;stop-opacity:2.973682e-002"/>
					<stop  offset="0.4062" style="stop-color:#E2ECEE;stop-opacity:0.4062"/>
					<stop  offset="0.7416" style="stop-color:#D2E1E5;stop-opacity:0.7416"/>
					<stop  offset="1" style="stop-color:#CCDDE2"/>
				</linearGradient>
				<path class="st10" d="M73.4,152.9l-3.9-13.4c-0.9-3.1-4.1-4.8-7.1-3.9c-1.4,0.4-2.5,1.3-3.2,2.4c0.8,0.7,1.4,1.6,1.7,2.7
					l3.9,13.4c0.5,1.7,0.2,3.3-0.7,4.7c0.8,0.7,1.9,1.2,3,1.4c0.8,0.1,1.6,0.1,2.5-0.2C72.5,159.1,74.3,155.9,73.4,152.9z"/>
			</g>
			<g>
				<g>
					<path class="st6" d="M79.1,145.4c-2.4-0.4-4.6-1.4-5.9-2.1c-1.1-0.7-1.5-2.1-0.9-3.2c0.7-1.1,2.1-1.5,3.2-0.9
						c1.2,0.7,4.2,2.2,6.9,1.5c1.5-0.4,2.6-1.4,3.6-3.1c0.6-1.1,2.1-1.5,3.2-0.9c1.1,0.6,1.5,2.1,0.9,3.2c-1.6,2.8-3.8,4.6-6.5,5.4
						C82.1,145.6,80.5,145.6,79.1,145.4z"/>
				</g>
				<g>
					
						<linearGradient id="SVGID_3_" gradientUnits="userSpaceOnUse" x1="62.6536" y1="134.4745" x2="65.5631" y2="136.3978" gradientTransform="matrix(0.9724 -0.2331 0.2331 0.9724 -11.0172 20.3029)">
						<stop  offset="0" style="stop-color:#FFFFFF;stop-opacity:0"/>
						<stop  offset="2.973682e-002" style="stop-color:#FDFDFE;stop-opacity:2.973682e-002"/>
						<stop  offset="0.4062" style="stop-color:#E2ECEE;stop-opacity:0.4062"/>
						<stop  offset="0.7416" style="stop-color:#D2E1E5;stop-opacity:0.7416"/>
						<stop  offset="1" style="stop-color:#CCDDE2"/>
					</linearGradient>
					<path class="st11" d="M84.8,140c1.5-0.4,2.6-1.4,3.6-3.1c0.1-0.2,0.2-0.3,0.4-0.5c-1-0.3-2.2,0.1-2.8,1.1
						c-0.7,1.3-1.6,2.2-2.5,2.7C84,140.1,84.4,140.1,84.8,140z"/>
					
						<linearGradient id="SVGID_4_" gradientUnits="userSpaceOnUse" x1="64.9098" y1="134.1359" x2="59.8795" y2="138.5251" gradientTransform="matrix(0.9724 -0.2331 0.2331 0.9724 -11.0172 20.3029)">
						<stop  offset="0" style="stop-color:#FFFFFF;stop-opacity:0"/>
						<stop  offset="2.973682e-002" style="stop-color:#FDFDFE;stop-opacity:2.973682e-002"/>
						<stop  offset="0.4062" style="stop-color:#E2ECEE;stop-opacity:0.4062"/>
						<stop  offset="0.7416" style="stop-color:#D2E1E5;stop-opacity:0.7416"/>
						<stop  offset="1" style="stop-color:#CCDDE2"/>
					</linearGradient>
					<path class="st12" d="M81.5,144.8c-2.4-0.4-4.6-1.4-5.9-2.1c-1.1-0.7-1.5-2.1-0.9-3.2c0.1-0.2,0.2-0.3,0.4-0.5
						c-1-0.3-2.2,0.1-2.7,1.1c-0.7,1.1-0.3,2.6,0.9,3.2c1.3,0.8,3.5,1.8,5.9,2.1c1.5,0.2,3,0.2,4.6-0.2c0.4-0.1,0.7-0.2,1.1-0.4
						C83.6,145,82.5,144.9,81.5,144.8z"/>
				</g>
			</g>
			<g>
				<g>
					<path class="st6" d="M97.3,163C97.3,163,97.3,163,97.3,163c-1.5,0.8-3.3,0.2-4-1.3c-1.8-3.5-4.1-5.7-7-6.6
						c-5-1.5-10.3,1.2-11.8,2c-1.4,0.8-3.2,0.3-4-1.1c-0.8-1.4-0.3-3.2,1.1-4c2.6-1.5,9.4-4.7,16.4-2.6c4.5,1.4,8,4.6,10.6,9.6
						C99.2,160.5,98.7,162.2,97.3,163z"/>
				</g>
				
					<linearGradient id="SVGID_5_" gradientUnits="userSpaceOnUse" x1="69.8528" y1="147.8849" x2="59.6444" y2="156.7124" gradientTransform="matrix(0.9724 -0.2331 0.2331 0.9724 -11.0172 20.3029)">
					<stop  offset="0" style="stop-color:#FFFFFF;stop-opacity:0"/>
					<stop  offset="2.973682e-002" style="stop-color:#FDFDFE;stop-opacity:2.973682e-002"/>
					<stop  offset="0.4062" style="stop-color:#E2ECEE;stop-opacity:0.4062"/>
					<stop  offset="0.7416" style="stop-color:#D2E1E5;stop-opacity:0.7416"/>
					<stop  offset="1" style="stop-color:#CCDDE2"/>
				</linearGradient>
				<path class="st13" d="M98.4,161.3C98.4,161.3,98.4,161.3,98.4,161.3c-1.5,0.8-3.3,0.2-4-1.3c-1.8-3.5-4.1-5.7-7-6.6
					c-5-1.5-10.3,1.2-11.8,2c-1.4,0.8-3.2,0.3-4-1.1c-0.4-0.7-0.5-1.5-0.3-2.2c-1.2,0.9-1.6,2.5-0.8,3.8c0.8,1.4,2.6,1.9,4,1.1
					c1.5-0.9,6.9-3.5,11.8-2c2.9,0.9,5.2,3.1,7,6.6c0.7,1.5,2.5,2,4,1.3c0,0,0.1,0,0.1,0c0.7-0.4,1.2-1.1,1.4-1.9
					C98.6,161.2,98.5,161.3,98.4,161.3z"/>
			</g>
			<g>
				<g>
					<path class="st6" d="M80,155.7c-1.4-2.4-3.4-4.1-5.5-5.4l-3.8,4.9c1.6,0.8,3.1,2,4.1,3.6c1.7,2.8,1.8,6.8,0.3,11.8
						c-0.5,1.6,0.5,3.3,2.1,3.8c1.6,0.5,3.2-0.4,3.8-1.9c0,0,0-0.1,0-0.1C82.9,165.6,82.6,160,80,155.7z"/>
				</g>
				<g>
					
						<linearGradient id="SVGID_6_" gradientUnits="userSpaceOnUse" x1="50.372" y1="157.7635" x2="48.923" y2="164.1875" gradientTransform="matrix(0.9724 -0.2331 0.2331 0.9724 -11.0172 20.3029)">
						<stop  offset="0" style="stop-color:#FFFFFF;stop-opacity:0"/>
						<stop  offset="2.973682e-002" style="stop-color:#FDFDFE;stop-opacity:2.973682e-002"/>
						<stop  offset="0.4062" style="stop-color:#E2ECEE;stop-opacity:0.4062"/>
						<stop  offset="0.7416" style="stop-color:#D2E1E5;stop-opacity:0.7416"/>
						<stop  offset="1" style="stop-color:#CCDDE2"/>
					</linearGradient>
					<path class="st14" d="M76.6,159.2c-1.2-2-3.2-3.3-5.2-4.2l-0.4,0.5c1.4,0.8,2.7,1.9,3.6,3.4c1.7,2.8,1.8,6.8,0.3,11.8
						c-0.5,1.6,0.5,3.3,2.1,3.8c0.5,0.1,1,0.2,1.5,0.1c-1.3-0.6-2.1-2.2-1.6-3.6C78.4,165.9,78.3,161.9,76.6,159.2z"/>
				</g>
			</g>
			<g>
				<path class="st6" d="M73.3,157.8c-2.2-0.3-4-1.9-4.7-4.1l-3.9-13.4c-0.9-3.1,0.9-6.2,3.9-7.1c3.1-0.9,6.2,0.9,7.1,3.9l3.9,13.4
					c0.9,3.1-0.9,6.2-3.9,7.1C75,157.9,74.1,157.9,73.3,157.8z"/>
			</g>
			<line class="st15" x1="72.6" y1="141.7" x2="74.5" y2="148.6"/>
			<g>
				<g>
					<circle class="st6" cx="69.9" cy="134" r="8.3"/>
				</g>
				
					<linearGradient id="SVGID_7_" gradientUnits="userSpaceOnUse" x1="58.404" y1="128.8842" x2="49.3298" y2="129.7226" gradientTransform="matrix(0.9724 -0.2331 0.2331 0.9724 -11.0172 20.3029)">
					<stop  offset="0" style="stop-color:#FFFFFF;stop-opacity:0"/>
					<stop  offset="2.973682e-002" style="stop-color:#FDFDFE;stop-opacity:2.973682e-002"/>
					<stop  offset="0.4062" style="stop-color:#E2ECEE;stop-opacity:0.4062"/>
					<stop  offset="0.7416" style="stop-color:#D2E1E5;stop-opacity:0.7416"/>
					<stop  offset="1" style="stop-color:#CCDDE2"/>
				</linearGradient>
				<path class="st16" d="M70.5,141.4c-4.5-0.7-7.6-4.9-6.9-9.4c0.4-2.5,1.9-4.6,3.9-5.8c-2.9,0.9-5.3,3.4-5.8,6.7
					c-0.7,4.5,2.4,8.7,6.9,9.4c2,0.3,3.9-0.1,5.5-1.1C73,141.4,71.8,141.5,70.5,141.4z"/>
				<circle class="st17" cx="71.4" cy="133.7" r="5.2"/>
				<path class="st18" d="M72.2,137.5c-2.8-0.4-4.8-3.1-4.4-5.9c0.1-0.9,0.5-1.7,1.1-2.4c-1.3,0.8-2.3,2.1-2.6,3.7
					c-0.4,2.8,1.5,5.5,4.4,5.9c1.9,0.3,3.8-0.5,4.9-1.9C74.5,137.5,73.4,137.7,72.2,137.5z"/>
				<circle class="st6" cx="72.8" cy="130.9" r="1.3"/>
			</g>
			<g>
				<circle class="st19" cx="70.3" cy="145.4" r="1.3"/>
				<path class="st18" d="M70.6,146.3c-0.7-0.1-1.2-0.8-1.1-1.5c0-0.2,0.1-0.4,0.3-0.6c-0.4,0.2-0.7,0.5-0.8,1
					c-0.1,0.7,0.4,1.4,1.1,1.5c0.5,0.1,0.9-0.1,1.2-0.5C71.1,146.3,70.8,146.3,70.6,146.3z"/>
			</g>
			<g>
				<circle class="st20" cx="71.1" cy="147.7" r="0.5"/>
				<path class="st18" d="M71.2,148c-0.3,0-0.5-0.3-0.4-0.6c0-0.1,0.1-0.2,0.1-0.2c-0.2,0.1-0.3,0.2-0.3,0.4c0,0.3,0.2,0.6,0.4,0.6
					c0.2,0,0.4-0.1,0.5-0.2C71.4,148,71.3,148.1,71.2,148z"/>
			</g>
			<g>
				<g>
					<path class="st6" d="M87.7,143.4c1,0.9,1.1,2.4,0.2,3.5c-2.5,3.2-5.5,4.9-8.8,5.1c-6,0.3-10.8-4.8-12.4-6.5c-1-1-1-2.7,0.1-3.7
						c1-1,2.7-1,3.7,0.1c1.2,1.2,4.8,5,8.4,4.9c1.7-0.1,3.4-1.1,5-3.1c0.9-1.1,2.5-1.3,3.7-0.4C87.6,143.3,87.6,143.4,87.7,143.4z"
						/>
				</g>
				
					<linearGradient id="SVGID_8_" gradientUnits="userSpaceOnUse" x1="59.0481" y1="138.5649" x2="52.7906" y2="146.619" gradientTransform="matrix(0.9724 -0.2331 0.2331 0.9724 -11.0172 20.3029)">
					<stop  offset="0" style="stop-color:#FFFFFF;stop-opacity:0"/>
					<stop  offset="2.973682e-002" style="stop-color:#FDFDFE;stop-opacity:2.973682e-002"/>
					<stop  offset="0.4062" style="stop-color:#E2ECEE;stop-opacity:0.4062"/>
					<stop  offset="0.7416" style="stop-color:#D2E1E5;stop-opacity:0.7416"/>
					<stop  offset="1" style="stop-color:#CCDDE2"/>
				</linearGradient>
				<path class="st21" d="M80,150.5c-6,0.3-10.8-4.8-12.4-6.5c-0.6-0.6-0.8-1.4-0.7-2.2c0,0-0.1,0.1-0.1,0.1c-1,1-1.1,2.6-0.1,3.7
					c1.6,1.7,6.5,6.8,12.4,6.5c3.3-0.2,6.2-1.9,8.8-5.1c0.3-0.3,0.4-0.7,0.5-1.1C86,148.7,83.1,150.3,80,150.5z"/>
			</g>
		</g>
		<g>
			<g>
				<g>
					<circle class="st22" cx="147.5" cy="107.1" r="46.7"/>
					<path class="st23" d="M133.2,72c-23.3,9.9-34.4,36.6-25.1,60.1c-1.3-2.1-2.5-4.3-3.5-6.7c-10.1-23.7,0.9-51.2,24.7-61.3
						c23.7-10.1,51.2,0.9,61.3,24.7c0.2,0.4,0.3,0.8,0.5,1.1C178.9,71,154.6,62.9,133.2,72z"/>
					<path class="st24" d="M153.7,138.4c23.7-10.1,34.8-37.5,24.7-61.3c-1.4-3.3-3.1-6.3-5.2-9.1c7.4,4.9,13.6,11.9,17.3,20.7
						c10.1,23.7-0.9,51.2-24.7,61.3c-20.4,8.7-43.6,1.7-56.1-15.6C122.4,142.8,138.7,144.8,153.7,138.4z"/>
				</g>
				<g>
					<circle class="st23" cx="176.8" cy="105.6" r="5.8"/>
					<circle class="st24" cx="179.3" cy="105.4" r="5.8"/>
				</g>
				<g>
					<circle class="st23" cx="141.6" cy="131.1" r="7.7"/>
					<circle class="st24" cx="144.9" cy="131.3" r="7.7"/>
				</g>
				<g>
					<circle class="st23" cx="121.4" cy="117.5" r="3.4"/>
					<circle class="st24" cx="122.9" cy="117.6" r="3.4"/>
				</g>
				<g>
					<circle class="st23" cx="119.2" cy="94.8" r="3.4"/>
					<circle class="st24" cx="120.6" cy="94.9" r="3.4"/>
				</g>
				<g>
					<circle class="st23" cx="140.6" cy="77.4" r="3.4"/>
					<circle class="st24" cx="142" cy="77.5" r="3.4"/>
				</g>
				<g>
					<circle class="st23" cx="161.6" cy="94.7" r="4.9"/>
					<circle class="st23" cx="159.1" cy="100.9" r="3.2"/>
					<circle class="st24" cx="163.2" cy="94.8" r="4.9"/>
					<circle class="st24" cx="160.7" cy="101" r="3.2"/>
				</g>
				<g>
					<circle class="st23" cx="137.3" cy="104.2" r="2.6"/>
					<circle class="st23" cx="135.1" cy="107.1" r="1.7"/>
					<circle class="st24" cx="138.1" cy="104.5" r="2.6"/>
					<circle class="st24" cx="135.9" cy="107.4" r="1.7"/>
				</g>
			</g>
			<g>
				<path class="st1" d="M78.5,82.9c2.5-6.1,15-7.4,32.2-4.6c-1.1,1.4-2,2.8-2.9,4.2c-6.1,0.2-10.5,1.6-11.6,4.5
					C95,90,97,94,101.3,98.4c7.6,7.7,22.5,16.7,40.6,24c17.3,7,33.6,10.7,44.5,10.8c7,0,11.7-1.4,13-4.6c1.3-3.1-1.1-7.4-6-12.1
					c0.3-1.6,0.6-3.2,0.7-4.9c15,10.1,23.4,20,20.9,26.3c-2.6,6.6-16.7,7.7-36,3.9c-11.8-2.3-25.7-6.4-40-12.2
					c-14.9-6-28.1-12.9-38.4-19.7C84.8,99.6,75.9,89.4,78.5,82.9z"/>
				<path class="st0" d="M199.3,128.6c1.3-3.1-1.1-7.4-6-12.1c0.3-1.6,0.6-3.2,0.7-4.9c15,10.1,23.4,20,20.9,26.3
					c-1.5,3.8-6.8,5.7-14.7,6l-13.9-10.7C193.3,133.3,198.1,131.8,199.3,128.6z"/>
			</g>
		</g>
	</g>
</g>
</svg>
